<svg xmlns="http://www.w3.org/2000/svg" version="1.1" xmlns:xlink="http://www.w3.org/1999/xlink" xmlns:svgjs="http://svgjs.dev/svgjs" width="1500" height="1500" viewBox="0 0 1500 1500"><rect width="1500" height="1500" fill="#ffffff"></rect><g transform="matrix(0.6666666666666666,0,0,0.6666666666666666,249.39393939393938,438.5856950067477)"><svg viewBox="0 0 396 247" data-background-color="#0a1627" preserveAspectRatio="xMidYMid meet" height="935" width="1500" xmlns="http://www.w3.org/2000/svg" xmlns:xlink="http://www.w3.org/1999/xlink"><g id="tight-bounds" transform="matrix(1,0,0,1,0.2400000000000091,-0.09999999999999432)"><svg viewBox="0 0 395.52 247.2" height="247.2" width="395.52"><g><svg></svg></g><g><svg viewBox="0 0 395.52 247.2" height="247.2" width="395.52"><g transform="matrix(1,0,0,1,75.54432,87.92559003193665)"><svg viewBox="0 0 244.43135999999998 71.34881993612669" height="71.34881993612669" width="244.43135999999998"><g><svg viewBox="0 0 244.43135999999998 71.34881993612669" height="71.34881993612669" width="244.43135999999998"><g><svg viewBox="0 0 244.43135999999998 71.34881993612669" height="71.34881993612669" width="244.43135999999998"><g><svg viewBox="0 0 244.43135999999998 71.34881993612669" height="71.34881993612669" width="244.43135999999998"><g id="textblocktransform"><svg viewBox="0 0 244.43135999999998 71.34881993612669" height="71.34881993612669" width="244.43135999999998" id="textblock"><g><svg viewBox="0 0 244.43135999999998 42.537824021094266" height="42.537824021094266" width="244.43135999999998"><g transform="matrix(1,0,0,1,0,0)"><svg width="244.43135999999998" viewBox="3.05 -39 227.53 39.6" height="42.537824021094266" data-palette-color="#e4dbdd"><path d="M19.7-35.05Q22.6-35.05 24.85-34.15 27.1-33.25 28.95-31.5L28.95-31.5 26.25-28.85Q24.7-30.05 23.18-30.6 21.65-31.15 19.9-31.15L19.9-31.15Q15.7-31.15 13.03-28.38 10.35-25.6 9.18-21.45 8-17.3 8-13L8-13Q8-8.05 10.05-5.73 12.1-3.4 15.6-3.4L15.6-3.4Q17.85-3.4 19.6-4.17 21.35-4.95 23.35-6.35L23.35-6.35 25.45-3.15Q21 0.6 15.3 0.6L15.3 0.6Q9.65 0.6 6.35-3.05 3.05-6.7 3.05-13.4L3.05-13.4Q3.05-18.4 4.83-23.4 6.6-28.4 10.35-31.73 14.1-35.05 19.7-35.05L19.7-35.05ZM60.8-26.95Q63.45-26.95 65.02-25.18 66.6-23.4 66.6-20.4L66.6-20.4Q66.6-19.3 66.5-18.75L66.5-18.75 63.85 0 59.3 0 61.9-18.4Q62-19 62-19.95L62-19.95Q62-21.75 61.25-22.43 60.5-23.1 59.15-23.1L59.15-23.1Q57.25-23.1 55.4-21.13 53.55-19.15 51.7-15.9L51.7-15.9 49.45 0 44.9 0 47.5-18.4Q47.6-19 47.6-19.95L47.6-19.95Q47.6-21.75 46.85-22.43 46.1-23.1 44.75-23.1L44.75-23.1Q42.85-23.1 41-21.1 39.15-19.1 37.3-15.8L37.3-15.8 35.15 0 30.6 0 34.3-26.35 38.2-26.35 37.8-21.3Q39.75-24.05 41.82-25.5 43.9-26.95 46.4-26.95L46.4-26.95Q48.6-26.95 50.2-25.55 51.8-24.15 52.15-21.6L52.15-21.6Q54.15-24.25 56.27-25.6 58.4-26.95 60.8-26.95L60.8-26.95ZM86.7-26.95Q89.15-26.95 91.37-26.4 93.6-25.85 95.95-24.7L95.95-24.7 93.25-6Q93.15-5.2 93.15-4.9L93.15-4.9Q93.15-4 93.52-3.45 93.9-2.9 94.85-2.55L94.85-2.55 93.55 0.6Q91.45 0.35 90.3-0.7 89.15-1.75 88.9-3.8L88.9-3.8Q87.3-1.75 85.3-0.58 83.3 0.6 81.05 0.6L81.05 0.6Q77.05 0.6 74.85-2.15 72.65-4.9 72.65-9.5L72.65-9.5Q72.65-13.5 74.12-17.5 75.6-21.5 78.75-24.23 81.9-26.95 86.7-26.95L86.7-26.95ZM86.8-23.3Q83.65-23.3 81.57-21.18 79.5-19.05 78.52-15.88 77.55-12.7 77.55-9.45L77.55-9.45Q77.55-6.2 78.7-4.63 79.85-3.05 82-3.05L82-3.05Q84.05-3.05 85.67-4.3 87.3-5.55 89.05-7.9L89.05-7.9 91.1-22.45Q90.05-22.9 89.07-23.1 88.1-23.3 86.8-23.3L86.8-23.3ZM116.39-26.95Q117.64-26.95 119.04-26.6L119.04-26.6 117.69-22.15Q116.74-22.4 115.54-22.4L115.54-22.4Q113.09-22.4 111.27-20.28 109.44-18.15 107.99-13.95L107.99-13.95 105.99 0 101.44 0 105.14-26.35 109.04-26.35 108.74-20.95Q110.19-23.95 112.17-25.45 114.14-26.95 116.39-26.95L116.39-26.95ZM128.49-22.8L126.29-6.95Q126.19-5.95 126.19-5.65L126.19-5.65Q126.19-4.4 126.77-3.83 127.34-3.25 128.54-3.25L128.54-3.25Q129.44-3.25 130.32-3.53 131.19-3.8 132.34-4.35L132.34-4.35 133.84-1.15Q131.09 0.6 127.99 0.6L127.99 0.6Q124.94 0.6 123.29-0.98 121.64-2.55 121.64-5.45L121.64-5.45Q121.64-6.5 121.74-7.05L121.74-7.05 123.94-22.8 119.39-22.8 119.89-26.35 124.64-26.35 126.29-32.45 129.89-32.85 128.99-26.35 135.19-26.35 134.19-22.8 128.49-22.8ZM141.94-26.35L146.49-26.35 142.79 0 138.24 0 141.94-26.35ZM145.29-32.75Q143.94-32.75 143.14-33.58 142.34-34.4 142.34-35.6L142.34-35.6Q142.34-37.05 143.34-38.02 144.34-39 145.79-39L145.79-39Q147.14-39 147.94-38.2 148.74-37.4 148.74-36.15L148.74-36.15Q148.74-34.7 147.74-33.73 146.74-32.75 145.29-32.75L145.29-32.75ZM168.54-26.95Q171.44-26.95 173.11-25.18 174.79-23.4 174.79-20.3L174.79-20.3Q174.79-19.5 174.64-18.5L174.64-18.5 172.04 0 167.49 0 170.09-18.4Q170.19-19.5 170.19-19.85L170.19-19.85Q170.19-21.6 169.44-22.35 168.69-23.1 167.28-23.1L167.28-23.1Q164.99-23.1 162.86-21.05 160.74-19 158.94-15.8L158.94-15.8 156.74 0 152.19 0 155.89-26.35 159.78-26.35 159.39-21.2Q161.34-23.95 163.59-25.45 165.84-26.95 168.54-26.95L168.54-26.95ZM182.58 0.6Q181.23 0.6 180.36-0.3 179.48-1.2 179.48-2.55L179.48-2.55Q179.48-4.15 180.56-5.25 181.63-6.35 183.18-6.35L183.18-6.35Q184.58-6.35 185.46-5.45 186.33-4.55 186.33-3.2L186.33-3.2Q186.33-1.6 185.23-0.5 184.13 0.6 182.58 0.6L182.58 0.6ZM196.88-26.35L201.43-26.35 197.73 0 193.18 0 196.88-26.35ZM200.23-32.75Q198.88-32.75 198.08-33.58 197.28-34.4 197.28-35.6L197.28-35.6Q197.28-37.05 198.28-38.02 199.28-39 200.73-39L200.73-39Q202.08-39 202.88-38.2 203.68-37.4 203.68-36.15L203.68-36.15Q203.68-34.7 202.68-33.73 201.68-32.75 200.23-32.75L200.23-32.75ZM216.98 0.6Q212.13 0.6 209.5-2.3 206.88-5.2 206.88-10.3L206.88-10.3Q206.88-14 208.25-17.82 209.63-21.65 212.68-24.3 215.73-26.95 220.53-26.95L220.53-26.95Q225.38-26.95 227.98-24.05 230.58-21.15 230.58-16.05L230.58-16.05Q230.58-12.4 229.23-8.58 227.88-4.75 224.83-2.08 221.78 0.6 216.98 0.6L216.98 0.6ZM217.13-3.1Q220.28-3.1 222.23-5.28 224.18-7.45 224.98-10.53 225.78-13.6 225.78-16.55L225.78-16.55Q225.78-23.25 220.38-23.25L220.38-23.25Q217.23-23.25 215.28-21.08 213.33-18.9 212.5-15.83 211.68-12.75 211.68-9.8L211.68-9.8Q211.68-3.1 217.13-3.1L217.13-3.1Z" opacity="1" transform="matrix(1,0,0,1,0,0)" fill="#000000" class="wordmark-text-0" data-fill-palette-color="primary" id="text-0"></path></svg></g></svg></g><g transform="matrix(1,0,0,1,0,52.579983364698116)"><svg viewBox="0 0 244.43135999999998 18.76883657142857" height="18.76883657142857" width="244.43135999999998"><g transform="matrix(1,0,0,1,0,0)"><svg width="244.43135999999998" viewBox="3.8 -38.85 644 49.45" height="18.76883657142857" data-palette-color="#c1c1c1"><path d="M3.8-34.45L8.35-34.45 8.35 0 3.8 0 3.8-34.45ZM12.7-34.45L33.25-34.45 32.75-30.65 25.1-30.65 25.1 0 20.55 0 20.55-30.65 12.7-30.65 12.7-34.45ZM63-5.6Q63-4.2 63.4-3.53 63.8-2.85 64.7-2.45L64.7-2.45 63.75 0.6Q61.9 0.3 60.83-0.58 59.75-1.45 59.3-3.2L59.3-3.2Q57.15 0.6 53 0.6L53 0.6Q49.75 0.6 47.83-1.58 45.9-3.75 45.9-7.35L45.9-7.35Q45.9-11.55 48.5-13.78 51.1-16 56.05-16L56.05-16 58.65-16 58.65-18.4Q58.65-21 57.63-22.2 56.6-23.4 54.45-23.4L54.45-23.4Q51.9-23.4 48.5-22.05L48.5-22.05 47.4-25.15Q51.45-26.9 55-26.9L55-26.9Q59.05-26.9 61.03-24.73 63-22.55 63-18.6L63-18.6 63-5.6ZM53.9-2.7Q57-2.7 58.65-6.9L58.65-6.9 58.65-13.05 56.55-13.05Q53.4-13.05 51.93-11.7 50.45-10.35 50.45-7.55L50.45-7.55Q50.45-5.15 51.35-3.93 52.25-2.7 53.9-2.7L53.9-2.7ZM81.1-26.9Q83.95-26.9 85.65-24.85 87.35-22.8 87.35-19.35L87.35-19.35 87.35 0 82.95 0 82.95-18.75Q82.95-21.3 82.23-22.38 81.5-23.45 80.05-23.45L80.05-23.45Q77.2-23.45 74.75-18.55L74.75-18.55 74.75 0 70.35 0 70.35-26.35 74.15-26.35 74.5-22.4Q75.8-24.6 77.35-25.75 78.9-26.9 81.1-26.9L81.1-26.9ZM107.3-37.45L111.7-36.95 111.7 0 107.8 0 107.5-3.35Q105.15 0.6 101.5 0.6L101.5 0.6Q97.4 0.6 95.23-3.03 93.05-6.65 93.05-13.05L93.05-13.05Q93.05-17.2 94.15-20.35 95.25-23.5 97.2-25.2 99.15-26.9 101.65-26.9L101.65-26.9Q105.1-26.9 107.3-23.85L107.3-23.85 107.3-37.45ZM102.35-2.9Q105.2-2.9 107.3-6.65L107.3-6.65 107.3-20Q105.25-23.4 102.55-23.4L102.55-23.4Q100.25-23.4 98.98-20.9 97.7-18.4 97.7-13.15L97.7-13.15Q97.7-2.9 102.35-2.9L102.35-2.9ZM140.25-35Q142.7-35 144.55-34.18 146.4-33.35 148.25-31.65L148.25-31.65 145.9-28.9Q144.5-30.15 143.2-30.73 141.9-31.3 140.35-31.3L140.35-31.3Q133-31.3 133-17.25L133-17.25Q133-3.25 140.5-3.25L140.5-3.25Q142.2-3.25 143.48-3.93 144.75-4.6 146.1-5.85L146.1-5.85 148.55-3.2Q147.05-1.55 145-0.48 142.95 0.6 140.4 0.6L140.4 0.6Q134.85 0.6 131.53-3.9 128.2-8.4 128.2-17.25L128.2-17.25Q128.2-23.2 129.78-27.18 131.35-31.15 134.08-33.08 136.8-35 140.25-35L140.25-35ZM169.65-26.35L162.45 0.15Q161.2 4.7 158.75 7.35 156.3 10 151.95 10.6L151.95 10.6 151.45 7.25Q154.6 6.55 156.05 4.95 157.5 3.35 158.5 0L158.5 0 156.85 0 149.75-26.35 154.25-26.35 159.75-3.2 165.2-26.35 169.65-26.35ZM184.25-26.9Q188.05-26.9 190.18-23.45 192.3-20 192.3-13.2L192.3-13.2Q192.3-8.9 191.25-5.8 190.2-2.7 188.28-1.05 186.35 0.6 183.8 0.6L183.8 0.6Q182.1 0.6 180.6-0.28 179.1-1.15 178-2.75L178-2.75 177.7 0 173.8 0 173.8-36.9 178.2-37.35 178.2-23.15Q180.55-26.9 184.25-26.9L184.25-26.9ZM182.85-2.9Q187.65-2.9 187.65-13.2L187.65-13.2Q187.65-18.85 186.5-21.13 185.35-23.4 183.2-23.4L183.2-23.4Q180.4-23.4 178.2-19.35L178.2-19.35 178.2-6.3Q179.1-4.75 180.28-3.83 181.45-2.9 182.85-2.9L182.85-2.9ZM215.25-13.95Q215.25-12.85 215.15-11.65L215.15-11.65 201.35-11.65Q201.55-6.9 202.93-4.95 204.3-3 206.85-3L206.85-3Q208.5-3 209.8-3.53 211.1-4.05 212.5-5.2L212.5-5.2 214.45-2.55Q211.15 0.6 206.7 0.6L206.7 0.6Q202 0.6 199.4-2.88 196.8-6.35 196.8-12.9L196.8-12.9Q196.8-19.45 199.28-23.18 201.75-26.9 206.25-26.9L206.25-26.9Q210.6-26.9 212.93-23.63 215.25-20.35 215.25-13.95L215.25-13.95ZM211-14.9L211-15.25Q211-19.55 209.85-21.5 208.7-23.45 206.25-23.45L206.25-23.45Q204.05-23.45 202.8-21.48 201.55-19.5 201.35-14.9L201.35-14.9 211-14.9ZM231-26.9Q232.1-26.9 233-26.6L233-26.6 232.25-22.35Q231.25-22.6 230.45-22.6L230.45-22.6Q228.5-22.6 227.25-20.85 226-19.1 225.3-15.5L225.3-15.5 225.3 0 220.9 0 220.9-26.35 224.7-26.35 225.05-21.45Q226.9-26.9 231-26.9L231-26.9ZM243.45-26.9Q247.8-26.9 250.9-23.95L250.9-23.95 249-21.4Q247.6-22.45 246.3-22.98 245-23.5 243.55-23.5L243.55-23.5Q241.8-23.5 240.78-22.53 239.75-21.55 239.75-19.85L239.75-19.85Q239.75-18.2 240.75-17.25 241.75-16.3 244.55-15.3L244.55-15.3Q248.15-14 249.85-12.2 251.55-10.4 251.55-7.3L251.55-7.3Q251.55-3.55 249.03-1.48 246.5 0.6 242.75 0.6L242.75 0.6Q237.75 0.6 234.4-2.85L234.4-2.85 236.7-5.3Q239.5-2.85 242.65-2.85L242.65-2.85Q244.65-2.85 245.85-3.95 247.05-5.05 247.05-7.05L247.05-7.05Q247.05-8.4 246.6-9.25 246.15-10.1 245.05-10.8 243.95-11.5 241.85-12.25L241.85-12.25Q238.35-13.55 236.85-15.33 235.35-17.1 235.35-19.7L235.35-19.7Q235.35-21.7 236.38-23.35 237.4-25 239.25-25.95 241.1-26.9 243.45-26.9L243.45-26.9ZM273.75-13.95Q273.75-12.85 273.65-11.65L273.65-11.65 259.85-11.65Q260.05-6.9 261.43-4.95 262.8-3 265.35-3L265.35-3Q267-3 268.3-3.53 269.6-4.05 271-5.2L271-5.2 272.95-2.55Q269.65 0.6 265.2 0.6L265.2 0.6Q260.5 0.6 257.9-2.88 255.3-6.35 255.3-12.9L255.3-12.9Q255.3-19.45 257.78-23.18 260.25-26.9 264.75-26.9L264.75-26.9Q269.1-26.9 271.43-23.63 273.75-20.35 273.75-13.95L273.75-13.95ZM269.5-14.9L269.5-15.25Q269.5-19.55 268.35-21.5 267.2-23.45 264.75-23.45L264.75-23.45Q262.55-23.45 261.3-21.48 260.05-19.5 259.85-14.9L259.85-14.9 269.5-14.9ZM287.85-26.9Q289.85-26.9 291.45-26.25 293.05-25.6 294.55-24.1L294.55-24.1 292.55-21.5Q291.4-22.45 290.33-22.9 289.25-23.35 288-23.35L288-23.35Q282.7-23.35 282.7-13.05L282.7-13.05Q282.7-7.7 284.05-5.4 285.4-3.1 287.95-3.1L287.95-3.1Q289.2-3.1 290.23-3.55 291.25-4 292.5-4.95L292.5-4.95 294.55-2.3Q291.55 0.6 287.9 0.6L287.9 0.6Q283.2 0.6 280.6-2.8 278-6.2 278-12.95L278-12.95Q278-19.55 280.65-23.23 283.3-26.9 287.85-26.9L287.85-26.9ZM315.6-26.35L315.6 0 311.8 0 311.5-3.7Q310.25-1.55 308.68-0.48 307.1 0.6 305 0.6L305 0.6Q302.15 0.6 300.45-1.35 298.75-3.3 298.75-6.45L298.75-6.45 298.75-26.35 303.15-26.35 303.15-6.9Q303.15-2.85 306-2.85L306-2.85Q307.65-2.85 308.9-4.03 310.15-5.2 311.2-7.3L311.2-7.3 311.2-26.35 315.6-26.35ZM333-26.9Q334.1-26.9 335-26.6L335-26.6 334.25-22.35Q333.25-22.6 332.45-22.6L332.45-22.6Q330.5-22.6 329.25-20.85 328-19.1 327.3-15.5L327.3-15.5 327.3 0 322.9 0 322.9-26.35 326.7-26.35 327.05-21.45Q328.9-26.9 333-26.9L333-26.9ZM339.05-26.35L343.45-26.35 343.45 0 339.05 0 339.05-26.35ZM341.2-38.85Q342.55-38.85 343.35-38 344.15-37.15 344.15-35.8L344.15-35.8Q344.15-34.55 343.33-33.7 342.5-32.85 341.2-32.85L341.2-32.85Q339.9-32.85 339.08-33.7 338.25-34.55 338.25-35.8L338.25-35.8Q338.25-37.1 339.08-37.98 339.9-38.85 341.2-38.85L341.2-38.85ZM360.7-3.95L362.4-1.2Q360.15 0.6 357.35 0.6L357.35 0.6Q354.4 0.6 352.78-1.15 351.15-2.9 351.15-5.85L351.15-5.85 351.15-22.9 347.6-22.9 347.6-26.35 351.15-26.35 351.15-32.3 355.55-32.85 355.55-26.35 360.65-26.35 360.2-22.9 355.55-22.9 355.55-5.8Q355.55-3.05 357.9-3.05L357.9-3.05Q358.7-3.05 359.3-3.25 359.9-3.45 360.7-3.95L360.7-3.95ZM382.8-26.35L375.6 0.15Q374.35 4.7 371.9 7.35 369.45 10 365.1 10.6L365.1 10.6 364.6 7.25Q367.75 6.55 369.2 4.95 370.65 3.35 371.65 0L371.65 0 370 0 362.9-26.35 367.4-26.35 372.9-3.2 378.35-26.35 382.8-26.35ZM408.2-26.9Q412.05-26.9 414.05-23.38 416.05-19.85 416.05-13.2L416.05-13.2Q416.05-6.75 413.85-3.08 411.65 0.6 407.55 0.6L407.55 0.6Q404.15 0.6 401.95-2.3L401.95-2.3 401.95 10.05 397.55 10.6 397.55-26.35 401.4-26.35 401.65-22.85Q404.15-26.9 408.2-26.9L408.2-26.9ZM406.6-3Q408.95-3 410.18-5.43 411.4-7.85 411.4-13.2L411.4-13.2Q411.4-18.65 410.35-21.03 409.3-23.4 407.05-23.4L407.05-23.4Q404.2-23.4 401.95-19.55L401.95-19.55 401.95-6.05Q403.85-3 406.6-3L406.6-3ZM432.05-26.9Q433.15-26.9 434.05-26.6L434.05-26.6 433.3-22.35Q432.3-22.6 431.5-22.6L431.5-22.6Q429.55-22.6 428.3-20.85 427.05-19.1 426.35-15.5L426.35-15.5 426.35 0 421.95 0 421.95-26.35 425.75-26.35 426.1-21.45Q427.95-26.9 432.05-26.9L432.05-26.9ZM446.6-26.9Q451.3-26.9 453.88-23.43 456.45-19.95 456.45-13.2L456.45-13.2Q456.45-6.85 453.82-3.13 451.2 0.6 446.55 0.6L446.55 0.6Q441.9 0.6 439.3-3.05 436.7-6.7 436.7-13.15L436.7-13.15Q436.7-19.8 439.3-23.35 441.9-26.9 446.6-26.9L446.6-26.9ZM446.6-23.35Q443.95-23.35 442.65-20.98 441.35-18.6 441.35-13.15L441.35-13.15Q441.35-7.75 442.65-5.35 443.95-2.95 446.55-2.95L446.55-2.95Q449.2-2.95 450.5-5.35 451.8-7.75 451.8-13.2L451.8-13.2Q451.8-18.6 450.5-20.98 449.2-23.35 446.6-23.35L446.6-23.35ZM470.35-33.9Q468.75-33.9 468-33.1 467.25-32.3 467.25-30.55L467.25-30.55 467.25-26.35 472.55-26.35 472.05-22.9 467.25-22.9 467.25 0 462.85 0 462.85-22.9 459.2-22.9 459.2-26.35 462.85-26.35 462.85-30.5Q462.85-33.6 464.72-35.52 466.6-37.45 470-37.45L470-37.45Q472.75-37.45 475.35-36.1L475.35-36.1 474.05-33Q472.2-33.9 470.35-33.9L470.35-33.9ZM493.55-13.95Q493.55-12.85 493.45-11.65L493.45-11.65 479.65-11.65Q479.85-6.9 481.22-4.95 482.6-3 485.15-3L485.15-3Q486.8-3 488.1-3.53 489.4-4.05 490.8-5.2L490.8-5.2 492.75-2.55Q489.45 0.6 485 0.6L485 0.6Q480.3 0.6 477.7-2.88 475.1-6.35 475.1-12.9L475.1-12.9Q475.1-19.45 477.57-23.18 480.05-26.9 484.55-26.9L484.55-26.9Q488.9-26.9 491.22-23.63 493.55-20.35 493.55-13.95L493.55-13.95ZM489.3-14.9L489.3-15.25Q489.3-19.55 488.15-21.5 487-23.45 484.55-23.45L484.55-23.45Q482.35-23.45 481.1-21.48 479.85-19.5 479.65-14.9L479.65-14.9 489.3-14.9ZM505.6-26.9Q509.95-26.9 513.05-23.95L513.05-23.95 511.15-21.4Q509.75-22.45 508.45-22.98 507.15-23.5 505.7-23.5L505.7-23.5Q503.95-23.5 502.92-22.53 501.9-21.55 501.9-19.85L501.9-19.85Q501.9-18.2 502.9-17.25 503.9-16.3 506.7-15.3L506.7-15.3Q510.3-14 512-12.2 513.7-10.4 513.7-7.3L513.7-7.3Q513.7-3.55 511.17-1.48 508.65 0.6 504.9 0.6L504.9 0.6Q499.9 0.6 496.55-2.85L496.55-2.85 498.85-5.3Q501.65-2.85 504.8-2.85L504.8-2.85Q506.8-2.85 508-3.95 509.2-5.05 509.2-7.05L509.2-7.05Q509.2-8.4 508.75-9.25 508.3-10.1 507.2-10.8 506.1-11.5 504-12.25L504-12.25Q500.5-13.55 499-15.33 497.5-17.1 497.5-19.7L497.5-19.7Q497.5-21.7 498.52-23.35 499.55-25 501.4-25.95 503.25-26.9 505.6-26.9L505.6-26.9ZM525.25-26.9Q529.6-26.9 532.7-23.95L532.7-23.95 530.8-21.4Q529.4-22.45 528.1-22.98 526.8-23.5 525.35-23.5L525.35-23.5Q523.6-23.5 522.57-22.53 521.55-21.55 521.55-19.85L521.55-19.85Q521.55-18.2 522.55-17.25 523.55-16.3 526.35-15.3L526.35-15.3Q529.95-14 531.65-12.2 533.35-10.4 533.35-7.3L533.35-7.3Q533.35-3.55 530.82-1.48 528.3 0.6 524.55 0.6L524.55 0.6Q519.55 0.6 516.2-2.85L516.2-2.85 518.5-5.3Q521.3-2.85 524.45-2.85L524.45-2.85Q526.45-2.85 527.65-3.95 528.85-5.05 528.85-7.05L528.85-7.05Q528.85-8.4 528.4-9.25 527.95-10.1 526.85-10.8 525.75-11.5 523.65-12.25L523.65-12.25Q520.15-13.55 518.65-15.33 517.15-17.1 517.15-19.7L517.15-19.7Q517.15-21.7 518.17-23.35 519.2-25 521.05-25.95 522.9-26.9 525.25-26.9L525.25-26.9ZM538.5-26.35L542.9-26.35 542.9 0 538.5 0 538.5-26.35ZM540.65-38.85Q542-38.85 542.8-38 543.6-37.15 543.6-35.8L543.6-35.8Q543.6-34.55 542.77-33.7 541.95-32.85 540.65-32.85L540.65-32.85Q539.35-32.85 538.52-33.7 537.7-34.55 537.7-35.8L537.7-35.8Q537.7-37.1 538.52-37.98 539.35-38.85 540.65-38.85L540.65-38.85ZM558.7-26.9Q563.4-26.9 565.97-23.43 568.55-19.95 568.55-13.2L568.55-13.2Q568.55-6.85 565.92-3.13 563.3 0.6 558.65 0.6L558.65 0.6Q554 0.6 551.4-3.05 548.8-6.7 548.8-13.15L548.8-13.15Q548.8-19.8 551.4-23.35 554-26.9 558.7-26.9L558.7-26.9ZM558.7-23.35Q556.05-23.35 554.75-20.98 553.45-18.6 553.45-13.15L553.45-13.15Q553.45-7.75 554.75-5.35 556.05-2.95 558.65-2.95L558.65-2.95Q561.3-2.95 562.6-5.35 563.9-7.75 563.9-13.2L563.9-13.2Q563.9-18.6 562.6-20.98 561.3-23.35 558.7-23.35L558.7-23.35ZM585.2-26.9Q588.05-26.9 589.75-24.85 591.45-22.8 591.45-19.35L591.45-19.35 591.45 0 587.05 0 587.05-18.75Q587.05-21.3 586.32-22.38 585.6-23.45 584.15-23.45L584.15-23.45Q581.3-23.45 578.85-18.55L578.85-18.55 578.85 0 574.45 0 574.45-26.35 578.25-26.35 578.6-22.4Q579.9-24.6 581.45-25.75 583-26.9 585.2-26.9L585.2-26.9ZM613.75-5.6Q613.75-4.2 614.15-3.53 614.55-2.85 615.45-2.45L615.45-2.45 614.5 0.6Q612.65 0.3 611.57-0.58 610.5-1.45 610.05-3.2L610.05-3.2Q607.9 0.6 603.75 0.6L603.75 0.6Q600.5 0.6 598.57-1.58 596.65-3.75 596.65-7.35L596.65-7.35Q596.65-11.55 599.25-13.78 601.85-16 606.8-16L606.8-16 609.4-16 609.4-18.4Q609.4-21 608.38-22.2 607.35-23.4 605.2-23.4L605.2-23.4Q602.65-23.4 599.25-22.05L599.25-22.05 598.15-25.15Q602.2-26.9 605.75-26.9L605.75-26.9Q609.8-26.9 611.77-24.73 613.75-22.55 613.75-18.6L613.75-18.6 613.75-5.6ZM604.65-2.7Q607.75-2.7 609.4-6.9L609.4-6.9 609.4-13.05 607.3-13.05Q604.15-13.05 602.67-11.7 601.2-10.35 601.2-7.55L601.2-7.55Q601.2-5.15 602.1-3.93 603-2.7 604.65-2.7L604.65-2.7ZM625.7 0.6Q623.5 0.6 622.17-0.8 620.85-2.2 620.85-4.6L620.85-4.6 620.85-36.95 625.25-37.45 625.25-4.7Q625.25-3.05 626.65-3.05L626.65-3.05Q627.3-3.05 627.9-3.3L627.9-3.3 628.9-0.3Q627.45 0.6 625.7 0.6L625.7 0.6ZM639.7-26.9Q644.05-26.9 647.15-23.95L647.15-23.95 645.25-21.4Q643.85-22.45 642.55-22.98 641.25-23.5 639.8-23.5L639.8-23.5Q638.05-23.5 637.02-22.53 636-21.55 636-19.85L636-19.85Q636-18.2 637-17.25 638-16.3 640.8-15.3L640.8-15.3Q644.4-14 646.1-12.2 647.8-10.4 647.8-7.3L647.8-7.3Q647.8-3.55 645.27-1.48 642.75 0.6 639 0.6L639 0.6Q634 0.6 630.65-2.85L630.65-2.85 632.95-5.3Q635.75-2.85 638.9-2.85L638.9-2.85Q640.9-2.85 642.1-3.95 643.3-5.05 643.3-7.05L643.3-7.05Q643.3-8.4 642.85-9.25 642.4-10.1 641.3-10.8 640.2-11.5 638.1-12.25L638.1-12.25Q634.6-13.55 633.1-15.33 631.6-17.1 631.6-19.7L631.6-19.7Q631.6-21.7 632.63-23.35 633.65-25 635.5-25.95 637.35-26.9 639.7-26.9L639.7-26.9Z" opacity="1" transform="matrix(1,0,0,1,0,0)" fill="#000000" class="slogan-text-1" data-fill-palette-color="secondary" id="text-1"></path></svg></g></svg></g></svg></g></svg></g></svg></g></svg></g></svg></g><g><path d="M245.816 0c68.262 0 123.6 55.338 123.6 123.6 0 68.262-55.338 123.6-123.6 123.6-54.005 0-99.92-34.635-116.744-82.905h2.033c16.742 47.191 61.78 80.986 114.711 80.987 67.203 0 121.682-54.479 121.682-121.682 0-67.203-54.479-121.682-121.682-121.682-52.931 0-97.968 33.796-114.711 80.987l-2.033 0c16.824-48.269 62.739-82.905 116.744-82.905z" fill="#000000" stroke="transparent" data-fill-palette-color="tertiary"></path></g></svg></g><defs></defs></svg><rect width="395.52" height="247.2" fill="none" stroke="none" visibility="hidden"></rect></g></svg></g></svg>