<svg xmlns="http://www.w3.org/2000/svg" version="1.1" xmlns:xlink="http://www.w3.org/1999/xlink" width="1500" height="1500" viewBox="0 0 1500 1500"><rect width="1500" height="1500" x="0" y="0" id="background" stroke="transparent" fill="#000000"></rect><svg xml:space="preserve" width="1000" height="1000" data-version="2" data-id="lg_iIWXcTmweOU01824Md" viewBox="0 0 571 130" x="250" y="250"><rect width="100%" height="100%" fill="transparent"></rect><rect width="589.56" height="133.94" x="-294.78" y="-66.97" fill="#c7c7c7" rx="0" ry="0" transform="translate(285.5 65)scale(.9499)"></rect><path fill="#000000" d="M190.159 78.93q.51 0 .79.35.27.34.49.75.22.36.88 1.7.66 1.34 1.25 2.64.58 1.3.58 1.59 0 .55-.62 1.06-2.6 1.98-6.48 2.99-3.88 1-7.14 1-7.69 0-13.2-3.48-5.52-3.48-8.46-9.41-2.95-5.93-2.95-13.33 0-5.31 1.56-10.05 1.55-4.74 4.55-8.39 3.01-3.64 7.38-5.71 4.38-2.07 10.02-2.07 3.33 0 7.1.92 3.78.91 6.56 2.74.73.48.73 1.1 0 .18-.35 1.06-.34.88-.82 2-.48 1.12-.9 2.03-.42.92-.57 1.21-.18.37-.45.75-.28.39-.79.39-.33 0-.6-.17-.28-.16-.57-.31-2.09-1.32-4.23-2.11-2.14-.78-4.67-.78-3.41 0-6.08 1.52t-4.52 4.04q-1.85 2.53-2.8 5.61-.96 3.07-.96 6.15 0 4.65 1.63 8.62 1.63 3.98 4.97 6.41 3.33 2.44 8.38 2.44 2.56 0 4.74-.7 2.18-.69 4.31-2.05.29-.18.58-.35.3-.16.66-.16" paint-order="stroke"></path><rect width="38.85" height="52.44" x="-19.43" y="-26.22" fill="none" rx="0" ry="0" transform="translate(175.22 65.29)"></rect><path fill="#000000" d="M202.429 57.25h4.98q1.25 0 1.47 1.32.07.29.14 1.17.08.88.2 1.65.13.76.35.76.18 0 .33-.16.15-.16.22-.27 2.42-2.9 5.55-4.12 3.13-1.23 6.83-1.23 3 0 5.84 1.1t4.19 4.03q.08.11.15.29.07.18.26.18.14 0 .25-.13.11-.12.18-.2 2.28-2.49 5.28-3.86 3-1.37 6.37-1.37 4.47 0 7.71 2.47t3.24 7.27q0 3.84.07 7.71.08 3.86.15 7.7.07 1.84.16 3.68.1 1.85.1 3.68 0 1.54-1.51 1.54h-5.71q-.8 0-1.12-.36-.31-.37-.38-1.1-.15-1.54-.11-3.13.04-1.6-.04-3.13-.03-3.3-.09-6.6-.05-3.29-.05-6.59 0-2.56-1.23-4.01-1.23-1.44-3.86-1.44-3.04 0-5.17 1.86-2.12 1.87-3.24 4.64-1.11 2.76-1.11 5.43 0 3.23.03 6.45.04 3.22.04 6.48 0 1.5-1.5 1.5h-5.79q-1.5 0-1.5-1.5 0-4.87.07-9.7.08-4.84 0-9.71-.03-2.45-1.22-3.95t-3.79-1.5q-3.12 0-5.24 1.85-2.12 1.84-3.22 4.63-1.1 2.78-1.18 5.53-.03 2.23-.07 4.47-.04 2.23-.11 4.5 0 .95.02 1.96t-.09 1.96q-.08.73-.39 1.1-.31.36-1.11.36h-5.75q-1.5 0-1.5-1.57 0-1.91.09-3.79.09-1.89.13-3.79.22-8.02.22-16.01 0-1.5-.08-3.29-.07-1.8.04-3.26.11-1.5 1.5-1.5" paint-order="stroke"></path><rect width="55.92" height="34.09" x="-27.96" y="-17.05" fill="none" rx="0" ry="0" transform="translate(228.99 73.92)"></rect><path fill="#000000" d="M276.509 91.16q-4.76 0-7.98-2.27-3.22-2.27-4.85-6.03-1.63-3.75-1.63-8.14v-.59q.07-4.61 1.92-8.68 1.85-4.06 5.37-6.57 3.51-2.51 8.49-2.51 3.08 0 5.73 1.15 2.66 1.16 4.97 3.13.25.26.44.26.44 0 .42-.92-.02-.91.25-1.83.28-.91 1.45-.91h5.16q1.5 0 1.5 1.5 0 1.57-.01 3.15-.02 1.57-.02 3.15 0 4.03.05 8.09.06 4.07.09 8.09.04 1.91.1 3.83.05 1.92.05 3.86 0 1.54-1.5 1.54h-5.75q-.99 0-1.28-.64-.29-.64-.26-1.52.04-.88 0-1.57 0-.11-.03-.37-.04-.25-.22-.25-.15 0-.28.11-.13.1-.24.18-2.56 2.16-5.53 3.46-2.96 1.3-6.41 1.3m3.74-7.8q2.6 0 4.82-1.08 2.21-1.08 3.46-3.43.07-.14.34-.75.28-.6.28-.75 0-1.28-.02-2.56t-.02-2.53q0-.58.04-1.3.04-.71-.04-1.26-.03-.26-.27-.77-.24-.51-.35-.73-1.28-2.31-3.63-3.44-2.34-1.14-4.9-1.14-2.71 0-4.76 1.35-2.05 1.36-3.21 3.58-1.15 2.21-1.15 4.85 0 2.63 1.21 4.9 1.21 2.28 3.35 3.67 2.14 1.39 4.85 1.39" paint-order="stroke"></path><rect width="35.96" height="34.79" x="-17.98" y="-17.39" fill="none" rx="0" ry="0" transform="translate(280.53 74.27)"></rect><path fill="#000000" d="M311.489 57.25q1.39 0 1.5 1.35l.37 4.18q0 .03.07.53.07.49.25.49.19 0 .39-.4l.24-.48q1.5-2.82 3.66-4.43 2.16-1.61 5.46-1.61.77 0 1.96.13t1.19 1.23q0 .55-.22 1.72t-.5 2.36q-.27 1.19-.42 1.81-.15.63-.46.97-.31.35-1.04.35-.37 0-.72-.05-.34-.06-.75-.06-2.89 0-4.87 1.81-1.97 1.82-2.96 4.45-.99 2.64-.99 5.2v12.16q0 1.5-1.5 1.5h-5.68q-1.5 0-1.5-1.54 0-5.67.05-11.33.06-5.66.06-11.3v-7.54q0-1.5 1.5-1.5Z" paint-order="stroke"></path><rect width="21.61" height="33.58" x="-10.8" y="-16.79" fill="none" rx="0" ry="0" transform="translate(316.27 74.17)"></rect><path fill="#000000" d="M333.859 56.74q0-3.15-.03-6.29-.04-3.13-.04-6.24 0-1.5 1.5-1.5h5.75q1.5 0 1.5 1.5 0 3.11-.02 6.24-.01 3.14-.01 6.29 0 .43.47.43h5.75q1.5 0 1.5 1.51 0 1.13-.02 2.28-.01 1.16-.01 2.33 0 1.5-1.51 1.5h-5.71q-.47 0-.47.44 0 5.93.03 11.87.04 5.93.04 11.86 0 1.5-1.5 1.5h-5.83q-1.5 0-1.5-1.5 0-5.93.06-11.86.05-5.94.05-11.87 0-.55-.77-.53-.76.02-1.75.13t-1.76-.15q-.77-.25-.77-1.39v-4.61q0-1.51 1.5-1.51h3.08q.47 0 .47-.43" paint-order="stroke"></path><rect width="21.42" height="47.75" x="-10.71" y="-23.88" fill="none" rx="0" ry="0" transform="translate(340.02 67.08)"></rect><path fill="#000000" d="M362.279 57.25q1.36 0 1.5 1.32.11.73.19 1.46l.14 1.47q0 .07.08.42.07.34.25.34t.35-.21l.24-.33q2.2-2.82 5.34-4.07 3.15-1.24 6.63-1.24 2.86 0 5.26 1.19t3.86 3.36q1.47 2.18 1.47 5.19 0 5.67.12 11.39.13 5.71.13 11.38 0 1.54-1.5 1.54h-5.75q-1.39 0-1.5-1.5-.11-1.57-.07-3.17.03-1.59 0-3.16-.04-3.37-.04-6.71v-6.66q0-2.6-1.5-3.9-1.5-1.3-3.99-1.3-3.12 0-5.11 1.9-2 1.91-2.97 4.69-.97 2.78-.97 5.46 0 3.22-.03 6.42l-.08 6.43q0 1.5-1.5 1.5h-5.75q-1.5 0-1.5-1.54 0-2.05.05-4.08.06-2.03.1-4.04.11-8.57.11-17.14v-4.91q0-1.5 1.5-1.5Z" paint-order="stroke"></path><rect width="32.26" height="34.05" x="-16.13" y="-17.02" fill="none" rx="0" ry="0" transform="translate(372.2 73.94)"></rect><path fill="#000000" d="M394.139 85.63q0-2.05 1.65-3.48 1.65-1.43 3.62-1.43 1.95 0 3.58 1.36 1.63 1.35 1.63 3.4 0 2.16-1.62 3.57-1.61 1.41-3.69 1.41-2.02 0-3.59-1.35-1.58-1.36-1.58-3.48" paint-order="stroke"></path><rect width="10.48" height="9.74" x="-5.24" y="-4.87" fill="none" rx="0" ry="0" transform="translate(399.88 86.09)"></rect><path fill="#000000" d="M432.589 82.04q.52 0 .79.33.28.33.46.73.15.3.58 1.43.44 1.14.83 2.23.38 1.1.38 1.32 0 .81-1.26 1.39-1.26.59-3.02.96-1.76.36-3.33.53-1.58.16-2.24.16-7.72 0-12.05-4.58-4.32-4.57-4.32-12.19 0-5.09 2-9.16 1.99-4.06 5.77-6.44 3.77-2.38 9.04-2.38 2.05 0 4.43.46 2.38.45 4.18 1.44.36.19.6.42.24.24.24.68 0 .37-.18.73l-1.69 4.25q-.4 1.03-1.28 1.03-.37 0-.81-.19-1.2-.4-2.41-.67-1.21-.28-2.49-.28-4.43 0-6.58 2.79-2.14 2.78-2.14 6.92 0 3.99 2.03 6.72 2.04 2.73 6.32 2.73 1.39 0 2.67-.33 1.29-.33 2.57-.81.22-.07.44-.15.22-.07.47-.07" paint-order="stroke"></path><rect width="26.26" height="34.75" x="-13.13" y="-17.38" fill="none" rx="0" ry="0" transform="translate(423.04 74.25)"></rect><path fill="#000000" d="M439.699 74.02q0-5.09 2.18-9.08t6.09-6.32q3.92-2.32 9.05-2.32 5.05 0 8.83 2.28 3.77 2.29 5.87 6.25 2.11 3.95 2.11 8.9 0 5.09-2.09 9.02-2.09 3.94-5.88 6.17-3.79 2.24-8.99 2.24-5.16 0-9.02-2.14-3.87-2.15-6.01-5.99-2.14-3.85-2.14-9.01m17.14-10.33q-2.79 0-4.65 1.49-1.87 1.48-2.82 3.79-.96 2.3-.96 4.83 0 2.38 1.01 4.58t2.88 3.59q1.86 1.39 4.43 1.39 2.78 0 4.63-1.41t2.78-3.65q.94-2.23.94-4.76 0-2.45-.94-4.7-.93-2.25-2.76-3.7-1.83-1.45-4.54-1.45" paint-order="stroke"></path><rect width="34.13" height="34.86" x="-17.07" y="-17.43" fill="none" rx="0" ry="0" transform="translate(457.26 74.23)"></rect><path fill="#000000" d="M481.339 57.25h4.98q1.24 0 1.46 1.32.07.29.15 1.17.07.88.2 1.65.13.76.35.76.18 0 .33-.16.14-.16.22-.27 2.41-2.9 5.54-4.12 3.14-1.23 6.83-1.23 3.01 0 5.85 1.1 2.83 1.1 4.19 4.03.07.11.15.29.07.18.25.18.15 0 .26-.13.11-.12.18-.2 2.27-2.49 5.27-3.86 3.01-1.37 6.38-1.37 4.46 0 7.71 2.47 3.24 2.47 3.24 7.27 0 3.84.07 7.71.07 3.86.15 7.7.07 1.84.16 3.68.09 1.85.09 3.68 0 1.54-1.5 1.54h-5.71q-.81 0-1.12-.36-.31-.37-.38-1.1-.15-1.54-.11-3.13.03-1.6-.04-3.13-.04-3.3-.09-6.6-.06-3.29-.06-6.59 0-2.56-1.22-4.01-1.23-1.44-3.87-1.44-3.04 0-5.16 1.86-2.12 1.87-3.24 4.64-1.12 2.76-1.12 5.43 0 3.23.04 6.45t.04 6.48q0 1.5-1.51 1.5h-5.78q-1.5 0-1.5-1.5 0-4.87.07-9.7.07-4.84 0-9.71-.04-2.45-1.23-3.95t-3.79-1.5q-3.11 0-5.23 1.85-2.13 1.84-3.23 4.63-1.1 2.78-1.17 5.53-.04 2.23-.07 4.47-.04 2.23-.11 4.5 0 .95.02 1.96.01 1.01-.1 1.96-.07.73-.38 1.1-.31.36-1.12.36h-5.75q-1.5 0-1.5-1.57 0-1.91.09-3.79.1-1.89.13-3.79.22-8.02.22-16.01 0-1.5-.07-3.29-.07-1.8.03-3.26.11-1.5 1.51-1.5" paint-order="stroke"></path><rect width="55.92" height="34.09" x="-27.96" y="-17.05" fill="none" rx="0" ry="0" transform="translate(507.89 73.92)"></rect><rect width="120.97" height="120.97" x="-60.48" y="-60.48" fill="#000000" rx="0" ry="0" transform="translate(69.05 65)scale(.9499)"></rect><path fill="#c7c7c7" d="M78.36 80.46 65.504 93.316l-7.235-7.236a3.073 3.073 0 1 0-4.345 4.346l9.408 9.408c.599.6 1.385.9 2.172.9a3.058 3.058 0 0 0 2.173-.9l15.028-15.029a3.073 3.073 0 0 0-4.343-4.345"></path><path fill="#c7c7c7" d="M108.465 61.077a16.125 16.125 0 0 0 1.334-6.417c0-5.721-3.088-11.067-8.064-13.954-3.953-2.285-8.825-2.764-13.046-1.386-5.307-7.28-13.627-11.551-22.743-11.551a28.18 28.18 0 0 0-14.115 3.807 28.16 28.16 0 0 0-7.54 6.361 20.712 20.712 0 0 0-9.103 2.754c-6.375 3.693-10.335 10.55-10.335 17.892 0 7.342 3.962 14.196 10.335 17.883a20.17 20.17 0 0 0 3.904 1.729 27.957 27.957 0 0 0 2.477 5.553 3.073 3.073 0 0 0 5.307-3.1 21.715 21.715 0 0 1-2.322-5.693 3.073 3.073 0 0 0-2.281-2.248 14.627 14.627 0 0 1-4.004-1.558 14.572 14.572 0 0 1-7.27-12.566 14.59 14.59 0 0 1 7.27-12.575c2.215-1.283 4.727-1.962 7.121-1.966.076.006.278.02.352.02a2.985 2.985 0 0 0 2.514-1.234 22.104 22.104 0 0 1 17.688-8.912c7.833 0 14.916 4.038 18.95 10.802a3.073 3.073 0 0 0 4.087 1.137 10.049 10.049 0 0 1 9.672.17 10.026 10.026 0 0 1 4.998 8.637 9.969 9.969 0 0 1-1.412 5.113 3.073 3.073 0 0 0 .232 3.49 14.336 14.336 0 0 1 3.156 9.007 14.577 14.577 0 0 1-7.275 12.573 14.465 14.465 0 0 1-2.783 1.212 3.073 3.073 0 0 0 1.924 5.836c1.494-.492 2.784-1.059 3.941-1.732 6.377-3.69 10.34-10.546 10.34-17.89a20.35 20.35 0 0 0-3.309-11.194"></path></svg></svg>